REM DIRINDEX 1\5,1\2\6,1\2\7,1\3\8,1\3\9,1\4\10,1\4\11,1\4\12
REM DIRNAME cjc026,folder01,folder02,folder03,folder04,folder05,folder06,folder07,folder08,folder09,folder10,folder11
TITLE ""
FILE "EJE_DB3000_5th_3B_16.mp3" MP3
  TRACK 01 AUDIO
    TITLE "0:"
    INDEX 01 00:00:00
  TRACK 02 AUDIO
    TITLE "10:cjc026_08790"
    INDEX 01 00:00:08
  TRACK 03 AUDIO
    TITLE "0:"
    INDEX 01 00:01:22
  TRACK 04 AUDIO
    TITLE "11:cjc026_08791"
    INDEX 01 00:01:60
  TRACK 05 AUDIO
    TITLE "0:"
    INDEX 01 00:03:15
  TRACK 06 AUDIO
    TITLE "12:cjc026_08792"
    INDEX 01 00:03:53
  TRACK 07 AUDIO
    TITLE "0:"
    INDEX 01 00:04:67
  TRACK 08 AUDIO
    TITLE "10:cjc026_08793"
    INDEX 01 00:05:30
  TRACK 09 AUDIO
    TITLE "0:"
    INDEX 01 00:06:46
  TRACK 10 AUDIO
    TITLE "11:cjc026_08794"
    INDEX 01 00:07:09
  TRACK 11 AUDIO
    TITLE "0:"
    INDEX 01 00:08:37
  TRACK 12 AUDIO
    TITLE "12:cjc026_08795"
    INDEX 01 00:08:72
  TRACK 13 AUDIO
    TITLE "0:"
    INDEX 01 00:10:11
  TRACK 14 AUDIO
    TITLE "10:cjc026_08796"
    INDEX 01 00:10:51
  TRACK 15 AUDIO
    TITLE "0:"
    INDEX 01 00:11:63
  TRACK 16 AUDIO
    TITLE "11:cjc026_08797"
    INDEX 01 00:12:26
  TRACK 17 AUDIO
    TITLE "0:"
    INDEX 01 00:13:51
  TRACK 18 AUDIO
    TITLE "12:cjc026_08798"
    INDEX 01 00:14:11
  TRACK 19 AUDIO
    TITLE "0:"
    INDEX 01 00:15:22
  TRACK 20 AUDIO
    TITLE "10:cjc026_08799"
    INDEX 01 00:15:60
  TRACK 21 AUDIO
    TITLE "0:"
    INDEX 01 00:16:71
  TRACK 22 AUDIO
    TITLE "11:cjc026_08800"
    INDEX 01 00:17:34
  TRACK 23 AUDIO
    TITLE "0:"
    INDEX 01 00:18:70
  TRACK 24 AUDIO
    TITLE "12:cjc026_08801"
    INDEX 01 00:19:33
  TRACK 25 AUDIO
    TITLE "0:"
    INDEX 01 00:20:41
  TRACK 26 AUDIO
    TITLE "10:cjc026_08802"
    INDEX 01 00:21:04
  TRACK 27 AUDIO
    TITLE "0:"
    INDEX 01 00:22:13
  TRACK 28 AUDIO
    TITLE "11:cjc026_08803"
    INDEX 01 00:22:48
  TRACK 29 AUDIO
    TITLE "0:"
    INDEX 01 00:24:11
  TRACK 30 AUDIO
    TITLE "12:cjc026_08804"
    INDEX 01 00:24:49
  TRACK 31 AUDIO
    TITLE "0:"
    INDEX 01 00:25:58
  TRACK 32 AUDIO
    TITLE "10:cjc026_08805"
    INDEX 01 00:26:21
  TRACK 33 AUDIO
    TITLE "0:"
    INDEX 01 00:27:56
  TRACK 34 AUDIO
    TITLE "11:cjc026_08806"
    INDEX 01 00:28:19
  TRACK 35 AUDIO
    TITLE "0:"
    INDEX 01 00:29:74
  TRACK 36 AUDIO
    TITLE "12:cjc026_08807"
    INDEX 01 00:30:34
  TRACK 37 AUDIO
    TITLE "0:"
    INDEX 01 00:31:72
  TRACK 38 AUDIO
    TITLE "10:cjc026_08808"
    INDEX 01 00:32:35
  TRACK 39 AUDIO
    TITLE "0:"
    INDEX 01 00:33:65
  TRACK 40 AUDIO
    TITLE "11:cjc026_08809"
    INDEX 01 00:34:31
  TRACK 41 AUDIO
    TITLE "0:"
    INDEX 01 00:36:16
  TRACK 42 AUDIO
    TITLE "12:cjc026_08810"
    INDEX 01 00:36:51
  TRACK 43 AUDIO
    TITLE "0:"
    INDEX 01 00:38:06
  TRACK 44 AUDIO
    TITLE "10:cjc026_08811"
    INDEX 01 00:38:47
  TRACK 45 AUDIO
    TITLE "0:"
    INDEX 01 00:40:05
  TRACK 46 AUDIO
    TITLE "11:cjc026_08812"
    INDEX 01 00:40:45
  TRACK 47 AUDIO
    TITLE "0:"
    INDEX 01 00:42:27
  TRACK 48 AUDIO
    TITLE "12:cjc026_08813"
    INDEX 01 00:42:60
  TRACK 49 AUDIO
    TITLE "0:"
    INDEX 01 00:44:18
  TRACK 50 AUDIO
    TITLE "10:cjc026_08814"
    INDEX 01 00:44:58
  TRACK 51 AUDIO
    TITLE "0:"
    INDEX 01 00:46:11
  TRACK 52 AUDIO
    TITLE "11:cjc026_08815"
    INDEX 01 00:46:51
  TRACK 53 AUDIO
    TITLE "0:"
    INDEX 01 00:48:20
  TRACK 54 AUDIO
    TITLE "12:cjc026_08816"
    INDEX 01 00:48:58
  TRACK 55 AUDIO
    TITLE "0:"
    INDEX 01 00:50:11
  TRACK 56 AUDIO
    TITLE "10:cjc026_08817"
    INDEX 01 00:50:51
  TRACK 57 AUDIO
    TITLE "0:"
    INDEX 01 00:51:65
  TRACK 58 AUDIO
    TITLE "11:cjc026_08818"
    INDEX 01 00:52:25
  TRACK 59 AUDIO
    TITLE "0:"
    INDEX 01 00:53:50
  TRACK 60 AUDIO
    TITLE "12:cjc026_08819"
    INDEX 01 00:54:13
  TRACK 61 AUDIO
    TITLE "0:"
    INDEX 01 00:55:27
  TRACK 62 AUDIO
    TITLE "10:cjc026_08820"
    INDEX 01 00:55:62
  TRACK 63 AUDIO
    TITLE "0:"
    INDEX 01 00:56:71
  TRACK 64 AUDIO
    TITLE "11:cjc026_08821"
    INDEX 01 00:57:34
  TRACK 65 AUDIO
    TITLE "0:"
    INDEX 01 00:59:11
  TRACK 66 AUDIO
    TITLE "12:cjc026_08822"
    INDEX 01 00:59:46
  TRACK 67 AUDIO
    TITLE "0:"
    INDEX 01 01:00:57
  TRACK 68 AUDIO
    TITLE "10:cjc026_08823"
    INDEX 01 01:01:17
  TRACK 69 AUDIO
    TITLE "0:"
    INDEX 01 01:02:42
  TRACK 70 AUDIO
    TITLE "11:cjc026_08824"
    INDEX 01 01:03:02
  TRACK 71 AUDIO
    TITLE "0:"
    INDEX 01 01:04:54
  TRACK 72 AUDIO
    TITLE "12:cjc026_08825"
    INDEX 01 01:05:17
  TRACK 73 AUDIO
    TITLE "0:"
    INDEX 01 01:06:42
